<?xml version="1.0" encoding="utf-8"?>
<!-- Generator: Adobe Illustrator 25.2.0, SVG Export Plug-In . SVG Version: 6.00 Build 0)  -->
<svg version="1.1" id="레이어_1" xmlns="http://www.w3.org/2000/svg" xmlns:xlink="http://www.w3.org/1999/xlink" x="0px"
	 y="0px" viewBox="0 0 100 100" style="enable-background:new 0 0 100 100;" xml:space="preserve">
<style type="text/css">
	.st0{fill:none;stroke:#FFFFFF;stroke-width:7;stroke-miterlimit:10;}
	.st1{fill:#FFFFFF;}
	.st2{fill:#E9722D;}
</style>
<g>
	<path class="st0" d="M-58.4,59.7h-49.9c-11.8,0-21.3-9.5-21.3-21.3v-50.1c0-10.3,8.3-18.6,18.6-18.6h54.2c9.5,0,17.2,7.7,17.2,17.2
		v53.9C-39.5,51.3-47.9,59.7-58.4,59.7z"/>
	<circle class="st0" cx="-84.5" cy="14.7" r="21.3"/>
	<circle class="st0" cx="-57.3" cy="-12.3" r="1.1"/>
</g>
<path class="st1" d="M40.3,42.6l-14.2,0.2v16.7h14.2V100h18.1V59.8h13l3.9-17.2h-16c0,0-7.2-22.7,16-19.6V8.8c0,0-25.8-8.2-31.4,7.2
	C38.7,30.2,40.3,42.6,40.3,42.6z"/>
<image style="overflow:visible;enable-background:new    ;" width="180" height="180" xlink:href="../05제로키친/개발중/img/33616083.jpg"  transform="matrix(1 0 0 1 -8142 -8142)">
</image>
<g>
	<path class="st1" d="M94.5,165.2c0,8.3-6.7,15-14.9,15H14.9c-8.2,0-14.9-6.7-14.9-15v-35.5c0-8.3,6.7-15,14.9-15h64.7
		c8.2,0,14.9,6.7,14.9,15V165.2z"/>
	<path class="st1" d="M58.9,177.6l-9.6-0.6v-0.3l-2,0.1l-2-0.1v0.3l-9.6,0.6l9.2,14.9c0,0,0.1,0.1,0.2,0.4c0.4,0.8,1.3,1.3,2.2,1.3
		s1.8-0.5,2.2-1.3c0.2-0.2,0.3-0.4,0.3-0.4L58.9,177.6z"/>
</g>
<g>
	<g>
		<path class="st2" d="M21,140.7c0,0-2.6,0-4.9,2.3v-9.2h-5.8v24.1h5.8V156c0,0,1.4,2.5,4.9,2.5c0,0,8.2-0.3,8.2-9
			C29.1,149.5,28.8,140.7,21,140.7z M19.7,153.5c-2.1,0-3.7-1.7-3.7-3.7c0-2.1,1.7-3.7,3.7-3.7c2.1,0,3.7,1.7,3.7,3.7
			C23.4,151.8,21.8,153.5,19.7,153.5z"/>
		<path class="st2" d="M31,133.3v5.6c0,0,2.6-0.1,2.6,4.8V158h5.6v-15.6C39.2,142.3,39.5,133.3,31,133.3z"/>
		<path class="st2" d="M52.9,140.8c0,0-9.6,0-9.6,8.9c0,0-0.3,8.8,9.6,8.8c0,0,9.8,0,9.8-8.8C62.6,149.7,63,140.8,52.9,140.8z
			 M52.9,153.5c-2.1,0-3.7-1.7-3.7-3.7c0-2.1,1.7-3.7,3.7-3.7c2.1,0,3.7,1.7,3.7,3.7C56.6,151.8,54.9,153.5,52.9,153.5z"/>
		<path class="st2" d="M78.6,141.4v1.6c0,0-1.7-2.2-4.9-2.2c0,0-8.2-0.3-8.2,8.9c0,0-0.1,8.6,8,8.6c0,0,3.3,0.1,5.1-2.2v1.4
			c0,0,0.4,4.2-3.7,4.2h-1.4v5.1h2.2c0,0,8.5,0.1,8.5-9v-16.3h-5.6V141.4z M75.2,153.5c-2.1,0-3.7-1.7-3.7-3.7
			c0-2.1,1.7-3.7,3.7-3.7c2.1,0,3.7,1.7,3.7,3.7C78.9,151.8,77.2,153.5,75.2,153.5z"/>
	</g>
</g>
<path class="st1" d="M128.1,34.8c0,0,47.9-4,70.2,0c0,0,9.3-0.6,10.3,14.2c0,0,2.2,22.5,0,36c0,0-0.8,10.5-13.9,11.3
	c0,0-40.2,2.4-61.9,0c0,0-11.5-0.6-13.6-12.7c0,0-1.2-21.8,0-36.4C119.2,47.3,119.4,39.2,128.1,34.8z"/>
<polygon class="st1" points="155,51.2 155,79.1 178.8,65.2 "/>
</svg>
