<?xml version="1.0" encoding="utf-8"?>
<!-- Generator: Adobe Illustrator 25.2.0, SVG Export Plug-In . SVG Version: 6.00 Build 0)  -->
<svg version="1.1" id="레이어_1" xmlns="http://www.w3.org/2000/svg" xmlns:xlink="http://www.w3.org/1999/xlink" x="0px"
	 y="0px" viewBox="0 0 100 100" style="enable-background:new 0 0 100 100;" xml:space="preserve">
<style type="text/css">
	.st0{fill:none;stroke:#FFFFFF;stroke-width:7;stroke-miterlimit:10;}
	.st1{fill:#FFFFFF;}
</style>
<g>
	<path class="st0" d="M-94.1,69.1H-144c-11.8,0-21.3-9.5-21.3-21.3V-2.3c0-10.3,8.3-18.6,18.6-18.6h54.2c9.5,0,17.2,7.7,17.2,17.2
		v53.9C-75.2,60.7-83.6,69.1-94.1,69.1z"/>
	<circle class="st0" cx="-120.2" cy="24.1" r="21.3"/>
	<circle class="st0" cx="-93" cy="-2.9" r="1.1"/>
</g>
<path class="st1" d="M-122.3,142.8l-14.2,0.2v16.7h14.2v40.5h18.1V160h13l3.9-17.2h-16c0,0-7.2-22.7,16-19.6V109
	c0,0-25.8-8.2-31.4,7.2C-123.9,130.4-122.3,142.8-122.3,142.8z"/>
<image style="overflow:visible;enable-background:new    ;" width="180" height="180" xlink:href="../05제로키친/개발중/img/33616083.jpg"  transform="matrix(1 0 0 1 -8142 -8142)">
</image>
<path class="st1" d="M97.2,61.8c0,8.3-6.7,15-14.9,15H17.6c-8.2,0-14.9-6.7-14.9-15V26.3c0-8.3,6.7-15,14.9-15h64.7
	c8.2,0,14.9,6.7,14.9,15V61.8z M60.7,76.8h-8.7l0,0l-1.6,0l-2.4,0l0,0h-8l7.6,12.3c0,0,0.1,0.1,0.2,0.4c0.4,0.8,1.3,1.3,2.2,1.3
	s1.8-0.5,2.2-1.3c0.2-0.2,0.3-0.4,0.3-0.4L60.7,76.8z M23.8,37.3c0,0-2.6,0-4.9,2.3v-9.2h-5.8v24.1h5.8v-1.9c0,0,1.4,2.5,4.9,2.5
	c0,0,8.2-0.3,8.2-9C31.9,46.1,31.5,37.3,23.8,37.3z M22.5,50.1c-2.1,0-3.7-1.7-3.7-3.7c0-2.1,1.7-3.7,3.7-3.7c2.1,0,3.7,1.7,3.7,3.7
	C26.1,48.4,24.5,50.1,22.5,50.1z M33.8,29.9v5.6c0,0,2.6-0.1,2.6,4.8v14.3h5.6V39C42,38.9,42.2,29.9,33.8,29.9z M55.7,37.4
	c0,0-9.6,0-9.6,8.9c0,0-0.3,8.8,9.6,8.8c0,0,9.8,0,9.8-8.8C65.3,46.3,65.8,37.4,55.7,37.4z M55.7,50.1c-2.1,0-3.7-1.7-3.7-3.7
	c0-2.1,1.7-3.7,3.7-3.7c2.1,0,3.7,1.7,3.7,3.7C59.3,48.4,57.7,50.1,55.7,50.1z M81.3,38v1.6c0,0-1.7-2.2-4.9-2.2
	c0,0-8.2-0.3-8.2,8.9c0,0-0.1,8.6,8,8.6c0,0,3.3,0.1,5.1-2.2v1.4c0,0,0.4,4.2-3.7,4.2h-1.4v5.1h2.2c0,0,8.5,0.1,8.5-9V38.1h-5.6V38z
	 M77.9,50.1c-2.1,0-3.7-1.7-3.7-3.7c0-2.1,1.7-3.7,3.7-3.7c2.1,0,3.7,1.7,3.7,3.7C81.7,48.4,79.9,50.1,77.9,50.1z"/>
<path class="st1" d="M179.3-0.8v27.9l23.8-13.9L179.3-0.8z M152.4-17.2c0,0,47.9-4,70.2,0c0,0,9.3-0.6,10.3,14.2c0,0,2.2,22.5,0,36
	c0,0-0.8,10.5-13.9,11.3c0,0-40.2,2.4-61.9,0c0,0-11.5-0.6-13.6-12.7c0,0-1.2-21.8,0-36.4C143.5-4.7,143.7-12.8,152.4-17.2z"/>
</svg>
