<?xml version="1.0" encoding="utf-8"?>
<!-- Generator: Adobe Illustrator 25.1.0, SVG Export Plug-In . SVG Version: 6.00 Build 0)  -->
<svg version="1.1" id="Layer_1" xmlns="http://www.w3.org/2000/svg" xmlns:xlink="http://www.w3.org/1999/xlink" x="0px" y="0px"
	 viewBox="0 0 360 84" style="enable-background:new 0 0 360 84;" xml:space="preserve">
<style type="text/css">
	.st0{fill:#FFFFFF;}
	.st1{fill:#EF2C2C;}
</style>
<g>
	<g>
		<g>
			<path class="st0" d="M24.95,12.49c4.94-2.77,10.6-4.22,16.26-4.24c62.22,0.01,124.44-0.01,186.66,0.01
				c-0.01,22.5-0.01,44.99,0,67.49c-62.22,0.01-124.44,0-186.66,0.01c-6.98,0-13.93-2.24-19.57-6.34
				C15.35,64.9,10.67,58.16,8.72,50.67c-2.04-7.66-1.29-16.04,2.15-23.19C13.86,21.18,18.86,15.87,24.95,12.49z M35.67,25.4
				c-0.01,10.98-0.01,21.97,0,32.95c-0.07,3.2,2.87,5.99,6.05,5.93c3.15,0.15,6.15-2.52,6.23-5.7c0.03-3.58,0-7.16,0.01-10.73
				c3.07,0,6.14,0,9.21,0c1.02,0.01,2.07,0.03,3.05-0.31c2.57-0.81,4.44-3.5,4.16-6.2c-0.19-2.9-2.78-5.42-5.69-5.5
				c-3.58-0.05-7.15,0-10.73-0.02c0-1.47,0-2.94,0-4.41c5.38-0.01,10.77,0.02,16.15-0.02c3.1-0.05,5.85-2.88,5.76-6
				c0.1-3.11-2.66-5.95-5.77-5.99c-7.54-0.01-15.08-0.01-22.62,0C38.35,19.42,35.56,22.27,35.67,25.4z M89.61,19.51
				c-7.56,0.67-14.33,5.71-17.74,12.4c-2.34,4.65-2.79,10.12-1.68,15.17c1.13,5.09,4.33,9.56,8.42,12.72
				c7.74,6.03,19.59,6,27.28-0.1c3.92-3.06,7-7.33,8.19-12.2c1.25-5.13,0.82-10.74-1.53-15.5c-2.04-4.07-5.33-7.49-9.25-9.78
				C99.2,19.84,94.31,19.04,89.61,19.51z M136.18,19.51c-6.1,0.54-11.71,3.93-15.41,8.75c-5.97,7.46-6.12,18.94-0.41,26.59
				c2.75,3.7,6.52,6.72,10.91,8.22c4.55,1.53,9.58,1.6,14.19,0.27c8.3-2.51,14.94-10.19,15.76-18.89
				c0.56-4.97-0.45-10.18-3.18-14.41c-2.37-3.67-5.72-6.74-9.68-8.61C144.58,19.64,140.31,19.11,136.18,19.51z M183.33,19.62
				c-2.49,0.7-4.44,3.15-4.36,5.77c-0.01,10.99-0.01,21.97,0,32.96c-0.06,2.92,2.4,5.57,5.27,5.87c1.63,0.15,3.27,0.03,4.91,0.07
				c2.74,0.05,5.5-0.16,8.13-0.96c4.75-1.39,8.84-4.57,11.76-8.53c5.51-7.44,5.52-18.47,0.02-25.91c-2.75-3.74-6.55-6.79-10.97-8.3
				c-2.95-1.04-6.1-1.28-9.21-1.19C187.04,19.48,185.15,19.19,183.33,19.62z M168.61,27.51c-2.6,0.64-4.66,3.17-4.55,5.88
				c-0.09,3.22,2.88,6.06,6.07,5.97c2.98,0.14,5.81-2.24,6.17-5.2c0.31-2.06-0.59-4.21-2.22-5.5
				C172.58,27.4,170.48,27.08,168.61,27.51z M168.36,44.01c-2.5,0.72-4.43,3.2-4.31,5.84c-0.07,3.13,2.73,5.89,5.82,5.94
				c2.97,0.23,5.88-2,6.38-4.94c0.44-2.26-0.58-4.66-2.45-5.97C172.26,43.74,170.18,43.53,168.36,44.01z"/>
		</g>
		<path class="st0" d="M246.22,20.78c-0.03-0.88,0.73-1.65,1.61-1.65c0.96-0.12,1.92,0.66,1.87,1.65c0.03,3.55,0,7.09,0.02,10.64
			c0.58,0,1.16,0,1.75,0c0.02-3.55-0.02-7.1,0.02-10.64c-0.02-0.92,0.81-1.7,1.73-1.64c0.93-0.07,1.8,0.71,1.76,1.65
			c0.03,3.54,0,7.09,0.01,10.63c0.58,0,1.16,0,1.75,0.01c0.01-3.37,0.01-6.75,0-10.12c-0.01-0.58,0.03-1.24,0.48-1.68
			c0.91-0.93,2.87-0.49,2.99,0.9c0.08,3.26,0.01,6.53,0.04,9.79c0.04,2.25-0.39,4.54-1.49,6.52c-0.59,1.11-1.57,1.98-2.05,3.15
			c-0.51,1.15-0.6,2.45-0.43,3.69c0.59,5.3,1.12,10.61,1.73,15.91c0.33,1.69-0.6,3.47-2.03,4.37c-1.72,1.16-4.17,1.06-5.8-0.22
			c-1.35-0.96-1.87-2.75-1.68-4.34c0.57-5.5,1.19-11,1.76-16.51c0.17-1.82-0.5-3.67-1.75-4.99c-1.79-1.98-2.27-4.77-2.29-7.35
			C246.2,27.28,246.18,24.03,246.22,20.78z"/>
		<path class="st0" d="M317.14,19.4c1.78-0.69,3.83-0.04,5.15,1.27c1.96,1.91,2.9,4.63,3.28,7.29c0.36,2.84,0.22,5.87-1.13,8.45
			c-0.64,1.29-1.86,2.21-2.33,3.6c-0.85,2.08-0.17,4.34-0.03,6.49c0.48,4.38,0.91,8.77,1.43,13.15c0.29,1.63-0.59,3.34-1.95,4.24
			c-2.19,1.56-5.77,1-7.04-1.48c-0.8-1.39-0.57-3.04-0.38-4.55c0.5-4.63,0.99-9.26,1.5-13.89c0.19-1.37,0.21-2.83-0.37-4.12
			c-0.54-1.45-1.91-2.36-2.49-3.79c-1.4-3.12-1.3-6.72-0.54-9.99C312.95,23.37,314.4,20.47,317.14,19.4z"/>
		<g>
			<path class="st0" d="M281.42,19.67c5.07-0.82,10.48-0.12,14.98,2.43c3.57,2.03,6.6,5.02,8.7,8.54
				c2.95,4.95,3.59,11.06,2.32,16.62c-1.19,5.1-4.43,9.57-8.58,12.7c-3.41,2.6-7.63,4.1-11.91,4.29c-3.99,0.25-8.07-0.43-11.65-2.25
				c-3.51-1.77-6.49-4.5-8.73-7.72c-5.23-7.55-5.01-18.47,0.61-25.76C270.6,23.95,275.71,20.54,281.42,19.67z M283.38,31.64
				c-3,0.58-5.59,2.66-7.03,5.32c-1.14,2.11-1.36,4.62-0.97,6.96c0.52,2.88,2.44,5.39,4.91,6.9c2.39,1.44,5.38,1.74,8.04,0.98
				c2.42-0.7,4.5-2.41,5.84-4.52c1.48-2.35,1.83-5.31,1.21-7.99c-0.67-2.89-2.73-5.35-5.32-6.74
				C288.03,31.47,285.62,31.24,283.38,31.64z"/>
		</g>
		<path class="st0" d="M90.74,31.51c2.15-0.29,4.4,0.05,6.3,1.11c2.68,1.5,4.75,4.17,5.27,7.22c0.33,2.24,0.16,4.62-0.89,6.67
			c-1.37,2.66-3.88,4.78-6.81,5.47c-2.56,0.56-5.36,0.25-7.61-1.14c-2.39-1.47-4.26-3.86-4.84-6.64c-0.52-2.5-0.24-5.22,1.03-7.47
			C84.76,33.99,87.57,31.9,90.74,31.51z"/>
		<path class="st0" d="M137.31,31.51c2.15-0.29,4.4,0.05,6.31,1.11c2.68,1.5,4.75,4.17,5.27,7.23c0.32,2.24,0.16,4.61-0.88,6.65
			c-1.37,2.68-3.89,4.8-6.84,5.49c-2.49,0.54-5.2,0.26-7.41-1.04c-2.47-1.46-4.42-3.9-5.01-6.73c-0.53-2.51-0.24-5.24,1.03-7.49
			C131.34,33.99,134.14,31.9,137.31,31.51z"/>
		<path class="st0" d="M191.26,31.4c2.92-0.01,5.54,1.7,7.34,3.89c3.14,3.75,3.03,9.8-0.28,13.41c-1.78,2.03-4.29,3.56-7.06,3.56
			C191.26,45.31,191.27,38.35,191.26,31.4z"/>
	</g>
	<g>
		<g>
			<path class="st1" d="M16.07,9.26c7.12-5.55,16.12-8.62,25.15-8.6c53.6-0.01,107.19,0,160.79-0.01
				c39.11-0.04,78.21-0.05,117.32-0.04c2.33,0.03,4.67,0.06,6.99,0.4c8.54,1.14,16.54,5.45,22.44,11.69
				c6.19,6.49,10.07,15.04,11.24,23.91v10.95c-0.1,0.51-0.21,1.02-0.29,1.53c-1.42,8.55-5.47,16.68-11.59,22.83
				c-5.83,5.89-13.56,9.94-21.8,11.04c-2.74,0.4-5.51,0.39-8.27,0.41c-33.11-0.02-66.21,0.04-99.31-0.04c-57.38,0-114.75,0-172.13,0
				c-2.99-0.03-5.99,0.09-8.98-0.17c-8.05-0.67-15.86-3.83-22.15-8.9c-6.83-5.46-11.88-13.13-14.1-21.6
				c-1.99-7.47-1.84-15.51,0.44-22.91C4.3,21.68,9.37,14.42,16.07,9.26z M24.95,12.49c-6.1,3.38-11.09,8.7-14.09,14.99
				c-3.43,7.15-4.19,15.53-2.15,23.19c1.96,7.49,6.63,14.23,12.92,18.74c5.64,4.1,12.6,6.34,19.57,6.34
				c62.22-0.01,124.44,0.01,186.66-0.01c-0.01-22.5-0.01-44.99,0-67.49c-62.22-0.01-124.44,0-186.66-0.01
				C35.55,8.26,29.89,9.71,24.95,12.49z M246.22,20.78c-0.03,3.25-0.01,6.51-0.01,9.76c0.02,2.59,0.5,5.37,2.29,7.35
				c1.25,1.32,1.93,3.17,1.75,4.99c-0.57,5.5-1.19,11-1.76,16.51c-0.19,1.59,0.33,3.38,1.68,4.34c1.63,1.28,4.08,1.38,5.8,0.22
				c1.43-0.9,2.36-2.68,2.03-4.37c-0.62-5.3-1.14-10.61-1.73-15.91c-0.17-1.24-0.08-2.53,0.43-3.69c0.48-1.18,1.46-2.04,2.05-3.15
				c1.11-1.98,1.53-4.27,1.49-6.52c-0.03-3.27,0.05-6.53-0.04-9.79c-0.13-1.39-2.09-1.83-2.99-0.9c-0.45,0.43-0.49,1.09-0.48,1.68
				c0,3.38,0.01,6.75,0,10.12c-0.59,0-1.17,0-1.75-0.01c-0.01-3.55,0.02-7.09-0.01-10.63c0.04-0.94-0.83-1.72-1.76-1.65
				c-0.91-0.05-1.75,0.72-1.73,1.64c-0.04,3.55,0,7.1-0.02,10.64c-0.59,0-1.17,0-1.75,0c-0.02-3.55,0.02-7.09-0.02-10.64
				c0.05-0.99-0.91-1.77-1.87-1.65C246.95,19.12,246.18,19.89,246.22,20.78z M317.14,19.4c-2.74,1.08-4.19,3.98-4.91,6.67
				c-0.76,3.27-0.86,6.87,0.54,9.99c0.58,1.43,1.95,2.34,2.49,3.79c0.58,1.29,0.57,2.74,0.37,4.12c-0.51,4.63-1,9.26-1.5,13.89
				c-0.19,1.51-0.42,3.16,0.38,4.55c1.27,2.48,4.85,3.04,7.04,1.48c1.36-0.9,2.24-2.61,1.95-4.24c-0.52-4.38-0.94-8.77-1.43-13.15
				c-0.14-2.15-0.82-4.4,0.03-6.49c0.47-1.38,1.7-2.31,2.33-3.6c1.35-2.58,1.48-5.61,1.13-8.45c-0.38-2.66-1.32-5.38-3.28-7.29
				C320.97,19.35,318.92,18.7,317.14,19.4z M281.42,19.67c-5.7,0.87-10.82,4.28-14.25,8.86c-5.61,7.29-5.84,18.21-0.61,25.76
				c2.24,3.21,5.22,5.94,8.73,7.72c3.58,1.82,7.66,2.5,11.65,2.25c4.28-0.19,8.5-1.7,11.91-4.29c4.14-3.13,7.39-7.6,8.58-12.7
				c1.27-5.56,0.63-11.68-2.32-16.62c-2.1-3.53-5.13-6.51-8.7-8.54C291.89,19.55,286.49,18.85,281.42,19.67z"/>
		</g>
		<path class="st1" d="M35.67,25.4c-0.11-3.13,2.69-5.97,5.8-5.99c7.54-0.01,15.08-0.01,22.62,0c3.11,0.04,5.86,2.88,5.77,5.99
			c0.1,3.11-2.66,5.94-5.76,6c-5.38,0.04-10.77,0.01-16.15,0.02c-0.01,1.47,0,2.94,0,4.41c3.58,0.02,7.15-0.03,10.73,0.02
			c2.92,0.08,5.5,2.6,5.69,5.5c0.28,2.71-1.58,5.39-4.16,6.2c-0.98,0.34-2.03,0.31-3.05,0.31c-3.07,0-6.14,0-9.21,0
			c-0.01,3.58,0.02,7.16-0.01,10.73c-0.08,3.18-3.07,5.85-6.23,5.7c-3.17,0.06-6.12-2.73-6.05-5.93
			C35.66,47.36,35.66,36.38,35.67,25.4z"/>
		<g>
			<path class="st1" d="M89.61,19.51c4.7-0.47,9.59,0.32,13.7,2.71c3.93,2.29,7.21,5.71,9.25,9.78c2.35,4.76,2.78,10.36,1.53,15.5
				c-1.2,4.87-4.27,9.14-8.19,12.2c-7.7,6.1-19.54,6.13-27.28,0.1c-4.1-3.16-7.29-7.62-8.42-12.72c-1.11-5.05-0.66-10.52,1.68-15.17
				C75.28,25.22,82.05,20.18,89.61,19.51z M90.74,31.51c-3.17,0.4-5.98,2.49-7.55,5.23c-1.27,2.24-1.55,4.96-1.03,7.47
				c0.58,2.77,2.45,5.16,4.84,6.64c2.25,1.39,5.05,1.7,7.61,1.14c2.94-0.69,5.44-2.81,6.81-5.47c1.05-2.04,1.21-4.43,0.89-6.67
				c-0.52-3.06-2.59-5.73-5.27-7.22C95.14,31.56,92.89,31.22,90.74,31.51z"/>
		</g>
		<g>
			<path class="st1" d="M136.18,19.51c4.13-0.4,8.4,0.13,12.18,1.91c3.96,1.87,7.31,4.94,9.68,8.61c2.73,4.23,3.74,9.44,3.18,14.41
				c-0.83,8.7-7.47,16.38-15.76,18.89c-4.61,1.34-9.64,1.27-14.19-0.27c-4.39-1.49-8.16-4.52-10.91-8.22
				c-5.71-7.65-5.55-19.13,0.41-26.59C124.46,23.45,130.08,20.05,136.18,19.51z M137.31,31.51c-3.17,0.4-5.97,2.48-7.54,5.22
				c-1.27,2.25-1.56,4.98-1.03,7.49c0.59,2.83,2.54,5.27,5.01,6.73c2.21,1.3,4.92,1.58,7.41,1.04c2.95-0.68,5.47-2.81,6.84-5.49
				c1.04-2.04,1.21-4.41,0.88-6.65c-0.51-3.06-2.59-5.73-5.27-7.23C141.71,31.56,139.46,31.22,137.31,31.51z"/>
		</g>
		<g>
			<path class="st1" d="M183.33,19.62c1.82-0.43,3.71-0.14,5.56-0.22c3.11-0.1,6.26,0.14,9.21,1.19c4.42,1.51,8.22,4.55,10.97,8.3
				c5.5,7.45,5.49,18.47-0.02,25.91c-2.91,3.96-7.01,7.14-11.76,8.53c-2.63,0.8-5.4,1.01-8.13,0.96c-1.64-0.04-3.28,0.08-4.91-0.07
				c-2.88-0.3-5.33-2.96-5.27-5.87c-0.01-10.98-0.01-21.97,0-32.96C178.89,22.77,180.84,20.32,183.33,19.62z M191.26,31.4
				c0.01,6.95,0,13.91,0,20.86c2.77,0,5.28-1.53,7.06-3.56c3.31-3.61,3.42-9.66,0.28-13.41C196.8,33.1,194.18,31.39,191.26,31.4z"/>
		</g>
		<path class="st1" d="M168.61,27.51c1.87-0.42,3.97-0.11,5.46,1.15c1.64,1.28,2.53,3.43,2.22,5.5c-0.36,2.96-3.19,5.34-6.17,5.2
			c-3.19,0.09-6.16-2.75-6.07-5.97C163.94,30.68,166.01,28.14,168.61,27.51z"/>
		<path class="st1" d="M283.38,31.64c2.25-0.4,4.65-0.17,6.69,0.91c2.59,1.38,4.65,3.85,5.32,6.74c0.61,2.68,0.27,5.64-1.21,7.99
			c-1.34,2.12-3.42,3.82-5.84,4.52c-2.66,0.76-5.66,0.46-8.04-0.98c-2.48-1.51-4.39-4.02-4.91-6.9c-0.39-2.34-0.18-4.85,0.97-6.96
			C277.78,34.31,280.38,32.22,283.38,31.64z"/>
		<path class="st1" d="M168.36,44.01c1.82-0.48,3.9-0.27,5.44,0.87c1.87,1.31,2.9,3.71,2.45,5.97c-0.5,2.94-3.41,5.17-6.38,4.94
			c-3.09-0.06-5.89-2.82-5.82-5.94C163.94,47.21,165.87,44.73,168.36,44.01z"/>
	</g>
</g>
</svg>
