<?xml version="1.0" standalone="no"?>
<!DOCTYPE svg PUBLIC "-//W3C//DTD SVG 20010904//EN"
 "http://www.w3.org/TR/2001/REC-SVG-20010904/DTD/svg10.dtd">
<svg version="1.0" xmlns="http://www.w3.org/2000/svg"
 width="462.000000pt" height="462.000000pt" viewBox="0 0 462.000000 462.000000"
 preserveAspectRatio="xMidYMid meet">
<metadata>
Created by potrace 1.14, written by Peter Selinger 2001-2017
</metadata>
<g transform="translate(0.000000,462.000000) scale(0.100000,-0.100000)"
fill="#000000" stroke="none">
<path d="M3258 3562 c-20 -2 -30 -11 -38 -36 -22 -67 -134 -141 -204 -135 -26
3 -42 -5 -77 -35 -24 -21 -80 -56 -124 -77 -75 -35 -81 -41 -104 -91 -101
-219 -282 -368 -476 -392 -133 -17 -122 -12 -159 -84 -62 -123 -110 -282 -134
-442 -4 -25 -7 -110 -7 -190 0 -119 4 -159 22 -220 29 -100 84 -220 135 -292
51 -72 175 -182 268 -238 117 -69 360 -156 492 -175 24 -4 46 -9 49 -11 15 -9
296 -34 381 -34 286 0 523 98 696 288 184 202 281 417 364 805 27 132 32 172
32 302 0 137 -7 198 -35 308 -9 34 -13 38 -32 33 -30 -9 -53 -15 -77 -20 -11
-3 -23 -7 -28 -9 -4 -3 -27 -8 -52 -11 -25 -4 -98 -14 -164 -24 l-119 -17 -59
-170 c-33 -94 -70 -204 -82 -245 -13 -41 -42 -136 -65 -210 -23 -74 -56 -192
-73 -262 -26 -105 -30 -132 -20 -153 14 -31 32 -32 80 -1 54 34 124 114 258
294 137 184 161 212 187 212 23 0 17 -22 -25 -100 -198 -359 -410 -544 -566
-496 -79 24 -92 122 -42 316 16 63 30 119 30 123 0 4 -14 -9 -32 -30 -91 -108
-203 -183 -274 -183 -42 0 -95 37 -118 83 l-18 38 -22 -20 c-37 -35 -106 -60
-154 -56 -60 5 -98 41 -107 102 l-6 45 -52 -51 c-29 -27 -64 -59 -79 -71 -74
-57 -187 -78 -259 -47 -59 24 -82 67 -87 161 -10 193 89 375 229 421 108 36
170 -40 124 -153 -10 -22 -55 -74 -116 -132 -90 -85 -101 -99 -106 -137 -7
-57 7 -73 64 -73 39 0 108 22 123 40 3 3 25 21 50 40 94 73 142 125 169 186
83 180 216 288 331 269 55 -9 100 -53 100 -97 0 -31 -23 -81 -32 -68 -2 3 -10
18 -18 35 -28 54 -76 47 -143 -22 -47 -50 -117 -145 -117 -162 0 -5 -4 -11 -8
-13 -14 -5 -54 -101 -60 -140 -3 -29 -1 -38 10 -38 19 0 115 99 202 207 57 71
70 82 96 81 22 -1 37 -9 51 -30 23 -32 22 -39 -23 -136 -37 -79 -37 -145 1
-150 55 -8 70 4 279 228 59 64 62 69 105 210 47 153 97 331 97 348 0 5 -57 11
-138 14 -114 3 -145 8 -172 24 -51 29 -60 51 -32 74 22 18 36 19 200 13 l177
-6 34 99 c71 209 75 213 150 174 61 -31 65 -57 22 -178 -16 -45 -26 -83 -23
-85 15 -7 359 -7 385 0 l27 8 -35 75 c-161 334 -489 561 -845 586 -134 9 -153
9 -182 6z"/>
<path d="M384 2454 c-5 -1 -21 -5 -36 -8 -14 -3 -40 -17 -56 -31 l-30 -25 -7
30 c-4 19 -13 30 -24 30 -16 0 -17 -12 -14 -137 1 -76 3 -234 3 -350 0 -206 1
-213 20 -213 19 0 20 7 20 125 l0 125 44 -32 c42 -29 50 -31 131 -30 79 0 88
2 119 29 52 43 56 60 56 224 0 135 -2 154 -21 187 -33 58 -62 74 -133 76 -34
1 -67 1 -72 0z m147 -72 l39 -40 0 -146 c0 -91 -4 -146 -10 -146 -5 0 -10 -6
-10 -12 0 -24 -66 -60 -99 -55 -20 3 -31 1 -32 -6 0 -8 -2 -8 -6 1 -2 6 -9 10
-13 7 -13 -8 -71 19 -105 50 l-30 27 -1 134 -1 134 46 43 c45 42 49 44 114 46
67 2 69 1 108 -37z"/>
<path d="M803 2415 c-33 -33 -39 -55 -16 -62 6 -2 24 10 40 28 29 30 33 31
117 32 84 1 88 0 117 -29 26 -26 31 -39 31 -80 0 -27 0 -55 -1 -61 -1 -10 -33
-13 -126 -13 -68 0 -134 -5 -147 -11 -13 -6 -35 -27 -50 -46 -39 -51 -40 -131
-2 -180 34 -45 63 -56 159 -57 74 -2 83 1 127 30 l47 32 3 -27 c2 -17 10 -27
23 -29 20 -3 20 2 17 195 -1 112 -7 210 -14 226 -6 15 -26 41 -45 57 -33 29
-36 30 -139 30 l-106 0 -35 -35z m292 -276 c2 -75 -11 -105 -58 -137 -38 -26
-50 -29 -114 -27 -79 2 -118 19 -133 61 -18 46 -11 82 21 119 l32 36 126 -3
125 -3 1 -46z"/>
<path d="M1270 2446 c0 -2 11 -37 24 -77 78 -242 126 -398 126 -408 0 -6 9
-15 20 -19 19 -7 19 -8 -4 -73 -39 -112 -40 -119 -13 -119 13 0 24 6 24 13 0
11 36 125 158 507 64 198 61 182 34 178 -21 -3 -29 -23 -81 -188 -32 -102 -63
-204 -69 -227 -6 -24 -17 -43 -23 -43 -7 0 -41 97 -81 230 -64 213 -71 230
-92 230 -13 0 -23 -2 -23 -4z"/>
<path d="M2550 2379 c-34 -14 -66 -45 -81 -80 -19 -48 -2 -45 49 7 38 39 73
87 59 83 -1 0 -13 -5 -27 -10z"/>
</g>
</svg>
