<?xml version="1.0" encoding="utf-8"?>
<!-- Generator: Adobe Illustrator 25.2.0, SVG Export Plug-In . SVG Version: 6.00 Build 0)  -->
<svg version="1.1" id="레이어_1" xmlns="http://www.w3.org/2000/svg" xmlns:xlink="http://www.w3.org/1999/xlink" x="0px"
	 y="0px" viewBox="0 0 150 150" style="enable-background:new 0 0 150 150;" xml:space="preserve">
<style type="text/css">
	.st0{fill:#333E96;}
	.st1{fill:#212121;}
	.st2{fill:#FFFFFF;}
	.st3{fill:#FFFFFF;stroke:#212121;stroke-width:3.5;stroke-linecap:round;}
	.st4{fill:none;stroke:#212121;stroke-width:3.5;stroke-linecap:round;}
	.st5{fill:#303B8C;stroke:#212121;stroke-width:3.5;stroke-linecap:round;stroke-linejoin:round;}
	.st6{fill:#FFFFFF;stroke:#212121;stroke-width:3.5;stroke-linecap:round;stroke-linejoin:round;stroke-miterlimit:10;}
	.st7{fill:#303B8C;stroke:#212121;stroke-width:3.5;stroke-linecap:round;stroke-linejoin:round;stroke-miterlimit:10;}
	.st8{fill:#2C3984;stroke:#212121;stroke-width:3.5;stroke-linecap:round;stroke-linejoin:round;stroke-miterlimit:10;}
</style>
<g>
	<path class="st0" d="M98,123H70V47h28V123z M62,83H34v40h28V83z"/>
	<rect x="22" y="127" class="st1" width="112" height="4"/>
	<polygon class="st1" points="50,75 54,75 54,31 74,31 74,39 78,39 78,27 50,27 	"/>
	<polygon class="st1" points="102,123 102,43 66,43 66,123 70,123 70,47 98,47 98,123 	"/>
	<polygon class="st1" points="30,123 34,123 34,83 62,83 62,79 30,79 	"/>
	<polygon class="st1" points="126,123 126,59 106,59 106,63 122,63 122,123 	"/>
	<rect x="42" y="91" class="st2" width="4" height="8"/>
	<rect x="54" y="91" class="st2" width="4" height="8"/>
	<rect x="42" y="107" class="st2" width="4" height="8"/>
	<rect x="54" y="107" class="st2" width="4" height="8"/>
	<rect x="74" y="55" class="st2" width="20" height="4"/>
	<rect x="74" y="67" class="st2" width="20" height="4"/>
	<rect x="74" y="79" class="st2" width="20" height="4"/>
	<rect x="74" y="91" class="st2" width="20" height="4"/>
	<rect x="74" y="103" class="st2" width="20" height="4"/>
	<rect x="54" y="19" class="st1" width="20" height="4"/>
</g>
<g>
	<g>
		<g>
			<g>
				<path class="st3" d="M293.1-14.1c0,0,5.2-14.9,9.8-18c4.5-3.1,9.6-1.4,7.3,6.3c-2.3,7.7-5.4,19.6-8,23.6
					c-2.6,4-8.6,8.7-14.2,13.8c-5.6,5.1-4.5,15-4.5,15h-30.9c0,0-0.9-5.1-2.6-12.6c-1.7-7.5-5.1-19.8-3.1-32.9
					c1.9-13.1,3.5-30.2,3.5-30.2s0.5-3.5,3.8-4.4c3.3-0.9,4.5,0.7,5.6,2.4v-9.6c0,0-0.6-4.6,3.6-5.8c4.4-1.3,6.2,2.4,6.2,2.4v-7.1
					c0,0,0.4-4.5,5.2-4.9c5.7-0.4,6.8,2.8,6.8,9.7c0,0,1.6-4.3,5.9-3.8c0,0,4.8-0.7,5.2,6.9C293.1-55.5,293.1-14.1,293.1-14.1z"/>
				<path class="st4" d="M293.1-14.1c0,0-15.4,2.3-20,12.4"/>
				<line class="st4" x1="269.6" y1="-64" x2="269.6" y2="-27.4"/>
				<line class="st4" x1="281.6" y1="-66.2" x2="281.6" y2="-27.3"/>
				<line class="st3" x1="259.7" y1="-51" x2="259.4" y2="-26.5"/>
			</g>
			<path class="st3" d="M249.3,35.9c-1.2,0-2.2-1-2.2-2.2v-8.8c0-1.2,1-2.2,2.2-2.2h36.7c1.2,0,2.2,1,2.2,2.2v8.8
				c0,1.2-1,2.2-2.2,2.2"/>
		</g>
		<g>
			<g>
				<path class="st3" d="M192.4-14.1c0,0-5.2-14.9-9.8-18c-4.5-3.1-9.6-1.4-7.3,6.3c2.3,7.7,5.4,19.6,8,23.6
					c2.6,4,8.6,8.7,14.2,13.8c5.6,5.1,4.5,15,4.5,15h30.9c0,0,0.9-5.1,2.6-12.6c1.7-7.5,5.1-19.8,3.1-32.9
					c-1.9-13.1-3.5-30.2-3.5-30.2s-0.5-3.5-3.8-4.4c-3.3-0.9-4.5,0.7-5.6,2.4v-9.6c0,0,0.6-4.6-3.6-5.8c-4.4-1.3-6.2,2.4-6.2,2.4
					v-7.1c0,0-0.4-4.5-5.2-4.9c-5.7-0.4-6.8,2.8-6.8,9.7c0,0-1.6-4.3-5.9-3.8c0,0-4.8-0.7-5.2,6.9C192.4-55.5,192.4-14.1,192.4-14.1
					z"/>
				<path class="st4" d="M192.4-14.1c0,0,15.4,2.3,20,12.4"/>
				<line class="st4" x1="215.9" y1="-64" x2="215.9" y2="-27.4"/>
				<line class="st4" x1="203.9" y1="-66.2" x2="203.9" y2="-27.3"/>
				<line class="st3" x1="225.7" y1="-51" x2="226.1" y2="-26.5"/>
			</g>
			<path class="st3" d="M236.2,35.9c1.2,0,2.2-1,2.2-2.2v-8.8c0-1.2-1-2.2-2.2-2.2h-36.7c-1.2,0-2.2,1-2.2,2.2v8.8
				c0,1.2,1,2.2,2.2,2.2"/>
		</g>
	</g>
	<path class="st5" d="M259-33.6c-9.1-3.4-14.7,6.6-16.3,8.4c-1.6-1.9-7.2-11.9-16.3-8.4c-10.8,4.1-13.3,27.3,16.3,42.7l0,0l0,0
		c0,0,0,0,0,0s0,0,0,0C272.3-6.3,269.9-29.5,259-33.6z"/>
</g>
<g>
	<circle class="st6" cx="-84.8" cy="-57.9" r="38.1"/>
	<circle class="st7" cx="-84.8" cy="-57.9" r="22.4"/>
	<polyline class="st6" points="-130,-91 -130,-70.7 -148.6,-70.7 -148.6,-91 	"/>
	<line class="st6" x1="-139.3" y1="-91" x2="-139.3" y2="-24.3"/>
	<line class="st6" x1="-34.9" y1="-91" x2="-34.9" y2="-21.8"/>
	<path class="st6" d="M-23.7-50.4h-11.3v-43.4l0,0c7.2,7,11.3,16.5,11.3,26.5V-50.4z"/>
</g>
<g>
	<line class="st6" x1="-101.6" y1="33.1" x2="-101.6" y2="127.5"/>
	<path class="st6" d="M-101.6,42.7c-26.1,0-47.2,21.1-47.2,47.2c0-4,7-7.3,15.7-7.3s15.7,3.3,15.7,7.3c0-0.4,0.1-0.9,0.3-1.3
		C-116.8,63.2-110,42.7-101.6,42.7z"/>
	<path class="st6" d="M-101.6,42.7c8.4,0,15.2,20.4,15.5,45.9c0.2,0.4,0.3,0.9,0.3,1.3c0-4,7-7.3,15.7-7.3s15.7,3.3,15.7,7.3
		C-54.4,63.9-75.5,42.7-101.6,42.7z"/>
	<path class="st8" d="M-101.6,42.7c-8.4,0-15.2,20.4-15.5,45.9c1.3-3.4,7.7-6,15.5-6s14.1,2.6,15.5,6
		C-86.3,63.2-93.2,42.7-101.6,42.7z"/>
	<polyline class="st6" points="-140.6,145.4 -136.6,134.5 -68.4,134.5 -64.4,145.4 	"/>
	<path class="st6" d="M-64.5,134.5h-77.7c-1.7,0-3.3-0.7-4.4-1.9l-18.9-20.6c-2.2-2.4-2.1-6.2,0.4-8.4c2.4-2.2,6.2-2.1,8.4,0.4
		l17.2,18.7h75.1c3.3,0,6,2.7,6,6C-58.5,131.8-61.2,134.5-64.5,134.5z"/>
</g>
</svg>
