<?xml version="1.0" encoding="utf-8"?>
<!-- Generator: Adobe Illustrator 25.2.0, SVG Export Plug-In . SVG Version: 6.00 Build 0)  -->
<svg version="1.1" id="레이어_1" xmlns="http://www.w3.org/2000/svg" xmlns:xlink="http://www.w3.org/1999/xlink" x="0px"
	 y="0px" viewBox="0 0 150 150" style="enable-background:new 0 0 150 150;" xml:space="preserve">
<style type="text/css">
	.st0{fill:#333E96;}
	.st1{fill:#212121;}
	.st2{fill:#FFFFFF;}
	.st3{fill:#FFFFFF;stroke:#212121;stroke-width:3.5;stroke-linecap:round;}
	.st4{fill:none;stroke:#212121;stroke-width:3.5;stroke-linecap:round;}
	.st5{fill:#303B8C;stroke:#212121;stroke-width:3.5;stroke-linecap:round;stroke-linejoin:round;}
	.st6{fill:#FFFFFF;stroke:#212121;stroke-width:3.5;stroke-linecap:round;stroke-linejoin:round;stroke-miterlimit:10;}
	.st7{fill:#303B8C;stroke:#212121;stroke-width:3.5;stroke-linecap:round;stroke-linejoin:round;stroke-miterlimit:10;}
	.st8{fill:#2C3984;stroke:#212121;stroke-width:3.5;stroke-linecap:round;stroke-linejoin:round;stroke-miterlimit:10;}
</style>
<g>
	<path class="st0" d="M108.2-32.2H75.5v-88.7h32.7V-32.2z M66.2-78.9H33.5v46.7h32.7V-78.9z"/>
	<rect x="19.5" y="-27.6" class="st1" width="130.6" height="4.7"/>
	<polygon class="st1" points="52.2,-88.2 56.9,-88.2 56.9,-139.6 80.2,-139.6 80.2,-130.2 84.9,-130.2 84.9,-144.2 52.2,-144.2 	"/>
	<polygon class="st1" points="112.9,-32.2 112.9,-125.6 70.9,-125.6 70.9,-32.2 75.5,-32.2 75.5,-120.9 108.2,-120.9 108.2,-32.2 	
		"/>
	<polygon class="st1" points="28.9,-32.2 33.5,-32.2 33.5,-78.9 66.2,-78.9 66.2,-83.6 28.9,-83.6 	"/>
	<polygon class="st1" points="140.9,-32.2 140.9,-106.9 117.5,-106.9 117.5,-102.2 136.2,-102.2 136.2,-32.2 	"/>
	<rect x="42.9" y="-69.6" class="st2" width="4.7" height="9.3"/>
	<rect x="56.9" y="-69.6" class="st2" width="4.7" height="9.3"/>
	<rect x="42.9" y="-50.9" class="st2" width="4.7" height="9.3"/>
	<rect x="56.9" y="-50.9" class="st2" width="4.7" height="9.3"/>
	<rect x="80.2" y="-111.6" class="st2" width="23.3" height="4.7"/>
	<rect x="80.2" y="-97.6" class="st2" width="23.3" height="4.7"/>
	<rect x="80.2" y="-83.6" class="st2" width="23.3" height="4.7"/>
	<rect x="80.2" y="-69.6" class="st2" width="23.3" height="4.7"/>
	<rect x="80.2" y="-55.6" class="st2" width="23.3" height="4.7"/>
	<rect x="56.9" y="-153.6" class="st1" width="23.3" height="4.7"/>
</g>
<g>
	<g>
		<g>
			<g>
				<path class="st3" d="M293.1-14.1c0,0,5.2-14.9,9.8-18c4.5-3.1,9.6-1.4,7.3,6.3c-2.3,7.7-5.4,19.6-8,23.6
					c-2.6,4-8.6,8.7-14.2,13.8c-5.6,5.1-4.5,15-4.5,15h-30.9c0,0-0.9-5.1-2.6-12.6c-1.7-7.5-5.1-19.8-3.1-32.9
					c1.9-13.1,3.5-30.2,3.5-30.2s0.5-3.5,3.8-4.4c3.3-0.9,4.5,0.7,5.6,2.4v-9.6c0,0-0.6-4.6,3.6-5.8c4.4-1.3,6.2,2.4,6.2,2.4v-7.1
					c0,0,0.4-4.5,5.2-4.9c5.7-0.4,6.8,2.8,6.8,9.7c0,0,1.6-4.3,5.9-3.8c0,0,4.8-0.7,5.2,6.9C293.1-55.5,293.1-14.1,293.1-14.1z"/>
				<path class="st4" d="M293.1-14.1c0,0-15.4,2.3-20,12.4"/>
				<line class="st4" x1="269.6" y1="-64" x2="269.6" y2="-27.4"/>
				<line class="st4" x1="281.6" y1="-66.2" x2="281.6" y2="-27.3"/>
				<line class="st3" x1="259.7" y1="-51" x2="259.4" y2="-26.5"/>
			</g>
			<path class="st3" d="M249.3,35.9c-1.2,0-2.2-1-2.2-2.2v-8.8c0-1.2,1-2.2,2.2-2.2h36.7c1.2,0,2.2,1,2.2,2.2v8.8
				c0,1.2-1,2.2-2.2,2.2"/>
		</g>
		<g>
			<g>
				<path class="st3" d="M192.4-14.1c0,0-5.2-14.9-9.8-18c-4.5-3.1-9.6-1.4-7.3,6.3c2.3,7.7,5.4,19.6,8,23.6
					c2.6,4,8.6,8.7,14.2,13.8c5.6,5.1,4.5,15,4.5,15h30.9c0,0,0.9-5.1,2.6-12.6c1.7-7.5,5.1-19.8,3.1-32.9
					c-1.9-13.1-3.5-30.2-3.5-30.2s-0.5-3.5-3.8-4.4c-3.3-0.9-4.5,0.7-5.6,2.4v-9.6c0,0,0.6-4.6-3.6-5.8c-4.4-1.3-6.2,2.4-6.2,2.4
					v-7.1c0,0-0.4-4.5-5.2-4.9c-5.7-0.4-6.8,2.8-6.8,9.7c0,0-1.6-4.3-5.9-3.8c0,0-4.8-0.7-5.2,6.9C192.4-55.5,192.4-14.1,192.4-14.1
					z"/>
				<path class="st4" d="M192.4-14.1c0,0,15.4,2.3,20,12.4"/>
				<line class="st4" x1="215.9" y1="-64" x2="215.9" y2="-27.4"/>
				<line class="st4" x1="203.9" y1="-66.2" x2="203.9" y2="-27.3"/>
				<line class="st3" x1="225.7" y1="-51" x2="226.1" y2="-26.5"/>
			</g>
			<path class="st3" d="M236.2,35.9c1.2,0,2.2-1,2.2-2.2v-8.8c0-1.2-1-2.2-2.2-2.2h-36.7c-1.2,0-2.2,1-2.2,2.2v8.8
				c0,1.2,1,2.2,2.2,2.2"/>
		</g>
	</g>
	<path class="st5" d="M259-33.6c-9.1-3.4-14.7,6.6-16.3,8.4c-1.6-1.9-7.2-11.9-16.3-8.4c-10.8,4.1-13.3,27.3,16.3,42.7l0,0l0,0
		c0,0,0,0,0,0s0,0,0,0C272.3-6.3,269.9-29.5,259-33.6z"/>
</g>
<g>
	<circle class="st6" cx="-103.4" cy="-50.9" r="38.1"/>
	<circle class="st7" cx="-103.4" cy="-50.9" r="22.4"/>
	<polyline class="st6" points="-148.5,-84 -148.5,-63.7 -167.1,-63.7 -167.1,-84 	"/>
	<line class="st6" x1="-157.8" y1="-84" x2="-157.8" y2="-17.3"/>
	<line class="st6" x1="-53.5" y1="-84" x2="-53.5" y2="-14.8"/>
	<path class="st6" d="M-42.2-43.4h-11.3v-43.4l0,0c7.2,7,11.3,16.5,11.3,26.5V-43.4z"/>
</g>
<g>
	<line class="st6" x1="83.7" y1="20.3" x2="83.7" y2="114.8"/>
	<path class="st6" d="M83.7,30c-26.1,0-47.2,21.1-47.2,47.2c0-4,7-7.3,15.7-7.3S68,73.2,68,77.2c0-0.4,0.1-0.9,0.3-1.3
		C68.5,50.4,75.3,30,83.7,30z"/>
	<path class="st6" d="M83.7,30c8.4,0,15.2,20.4,15.5,45.9c0.2,0.4,0.3,0.9,0.3,1.3c0-4,7-7.3,15.7-7.3s15.7,3.3,15.7,7.3
		C130.9,51.1,109.8,30,83.7,30z"/>
	<path class="st8" d="M83.7,30c-8.4,0-15.2,20.4-15.5,45.9c1.3-3.4,7.7-6,15.5-6s14.1,2.6,15.5,6C98.9,50.4,92.1,30,83.7,30z"/>
	<polyline class="st6" points="44.6,132.6 48.7,121.7 116.9,121.7 120.9,132.6 	"/>
	<path class="st6" d="M120.8,121.7H43c-1.7,0-3.3-0.7-4.4-1.9L19.7,99.2c-2.2-2.4-2.1-6.2,0.4-8.4c2.4-2.2,6.2-2.1,8.4,0.4
		l17.2,18.7h75.1c3.3,0,6,2.7,6,6C126.7,119.1,124.1,121.7,120.8,121.7z"/>
</g>
</svg>
