<?xml version="1.0" encoding="utf-8"?>
<!-- Generator: Adobe Illustrator 25.2.0, SVG Export Plug-In . SVG Version: 6.00 Build 0)  -->
<svg version="1.1" id="레이어_1" xmlns="http://www.w3.org/2000/svg" xmlns:xlink="http://www.w3.org/1999/xlink" x="0px"
	 y="0px" viewBox="0 0 150 150" style="enable-background:new 0 0 150 150;" xml:space="preserve">
<style type="text/css">
	.st0{fill:#333E96;}
	.st1{fill:#212121;}
	.st2{fill:#FFFFFF;}
	.st3{fill:#FFFFFF;stroke:#212121;stroke-width:3.5;stroke-linecap:round;}
	.st4{fill:none;stroke:#212121;stroke-width:3.5;stroke-linecap:round;}
	.st5{fill:#303B8C;stroke:#212121;stroke-width:3.5;stroke-linecap:round;stroke-linejoin:round;}
	.st6{fill:#FFFFFF;stroke:#35425C;stroke-width:2.5;stroke-linecap:round;stroke-linejoin:round;stroke-miterlimit:10;}
	.st7{fill:#C1DCF3;stroke:#35425C;stroke-width:2.5;stroke-linecap:round;stroke-linejoin:round;stroke-miterlimit:10;}
</style>
<g>
	<path class="st0" d="M108.2-32.2H75.5v-88.7h32.7V-32.2z M66.2-78.9H33.5v46.7h32.7V-78.9z"/>
	<rect x="19.5" y="-27.6" class="st1" width="130.6" height="4.7"/>
	<polygon class="st1" points="52.2,-88.2 56.9,-88.2 56.9,-139.6 80.2,-139.6 80.2,-130.2 84.9,-130.2 84.9,-144.2 52.2,-144.2 	"/>
	<polygon class="st1" points="112.9,-32.2 112.9,-125.6 70.9,-125.6 70.9,-32.2 75.5,-32.2 75.5,-120.9 108.2,-120.9 108.2,-32.2 	
		"/>
	<polygon class="st1" points="28.9,-32.2 33.5,-32.2 33.5,-78.9 66.2,-78.9 66.2,-83.6 28.9,-83.6 	"/>
	<polygon class="st1" points="140.9,-32.2 140.9,-106.9 117.5,-106.9 117.5,-102.2 136.2,-102.2 136.2,-32.2 	"/>
	<rect x="42.9" y="-69.6" class="st2" width="4.7" height="9.3"/>
	<rect x="56.9" y="-69.6" class="st2" width="4.7" height="9.3"/>
	<rect x="42.9" y="-50.9" class="st2" width="4.7" height="9.3"/>
	<rect x="56.9" y="-50.9" class="st2" width="4.7" height="9.3"/>
	<rect x="80.2" y="-111.6" class="st2" width="23.3" height="4.7"/>
	<rect x="80.2" y="-97.6" class="st2" width="23.3" height="4.7"/>
	<rect x="80.2" y="-83.6" class="st2" width="23.3" height="4.7"/>
	<rect x="80.2" y="-69.6" class="st2" width="23.3" height="4.7"/>
	<rect x="80.2" y="-55.6" class="st2" width="23.3" height="4.7"/>
	<rect x="56.9" y="-153.6" class="st1" width="23.3" height="4.7"/>
</g>
<g>
	<g>
		<g>
			<g>
				<path class="st3" d="M125.9,81.2c0,0,5.2-14.9,9.8-18c4.5-3.1,9.6-1.4,7.3,6.3c-2.3,7.7-5.4,19.6-8,23.6
					c-2.6,4-8.6,8.7-14.2,13.8c-5.6,5.1-4.5,15-4.5,15H85.4c0,0-0.9-5.1-2.6-12.6c-1.7-7.5-5.1-19.8-3.1-32.9
					c1.9-13.1,3.5-30.2,3.5-30.2s0.5-3.5,3.8-4.4c3.3-0.9,4.5,0.7,5.6,2.4v-9.6c0,0-0.6-4.6,3.6-5.8c4.4-1.3,6.2,2.4,6.2,2.4v-7.1
					c0,0,0.4-4.5,5.2-4.9c5.7-0.4,6.8,2.8,6.8,9.7c0,0,1.6-4.3,5.9-3.8c0,0,4.8-0.7,5.2,6.9C125.9,39.7,125.9,81.2,125.9,81.2z"/>
				<path class="st4" d="M125.9,81.2c0,0-15.4,2.3-20,12.4"/>
				<line class="st4" x1="102.3" y1="31.3" x2="102.3" y2="67.8"/>
				<line class="st4" x1="114.4" y1="29.1" x2="114.4" y2="68"/>
				<line class="st3" x1="92.5" y1="44.3" x2="92.2" y2="68.7"/>
			</g>
			<path class="st3" d="M82.1,131.2c-1.2,0-2.2-1-2.2-2.2v-8.8c0-1.2,1-2.2,2.2-2.2h36.7c1.2,0,2.2,1,2.2,2.2v8.8
				c0,1.2-1,2.2-2.2,2.2"/>
		</g>
		<g>
			<g>
				<path class="st3" d="M25.1,81.2c0,0-5.2-14.9-9.8-18C10.8,60,5.7,61.8,8,69.5c2.3,7.7,5.4,19.6,8,23.6c2.6,4,8.6,8.7,14.2,13.8
					c5.6,5.1,4.5,15,4.5,15h30.9c0,0,0.9-5.1,2.6-12.6c1.7-7.5,5.1-19.8,3.1-32.9C69.6,63.3,68,46.2,68,46.2s-0.5-3.5-3.8-4.4
					c-3.3-0.9-4.5,0.7-5.6,2.4v-9.6c0,0,0.6-4.6-3.6-5.8c-4.4-1.3-6.2,2.4-6.2,2.4v-7.1c0,0-0.4-4.5-5.2-4.9
					c-5.7-0.4-6.8,2.8-6.8,9.7c0,0-1.6-4.3-5.9-3.8c0,0-4.8-0.7-5.2,6.9C25.2,39.7,25.1,81.2,25.1,81.2z"/>
				<path class="st4" d="M25.1,81.2c0,0,15.4,2.3,20,12.4"/>
				<line class="st4" x1="48.7" y1="31.3" x2="48.7" y2="67.8"/>
				<line class="st4" x1="36.7" y1="29.1" x2="36.7" y2="68"/>
				<line class="st3" x1="58.5" y1="44.3" x2="58.9" y2="68.7"/>
			</g>
			<path class="st3" d="M69,131.2c1.2,0,2.2-1,2.2-2.2v-8.8c0-1.2-1-2.2-2.2-2.2H32.4c-1.2,0-2.2,1-2.2,2.2v8.8c0,1.2,1,2.2,2.2,2.2
				"/>
		</g>
	</g>
	<path class="st5" d="M91.8,61.7c-9.1-3.4-14.7,6.6-16.3,8.4c-1.6-1.9-7.2-11.9-16.3-8.4C48.4,65.8,46,88.9,75.5,104.3l0,0l0,0
		c0,0,0,0,0,0s0,0,0,0C105.1,88.9,102.7,65.8,91.8,61.7z"/>
</g>
<g>
	<circle class="st6" cx="-81.7" cy="2.9" r="38.1"/>
	<circle class="st7" cx="-81.7" cy="2.9" r="22.4"/>
	<polyline class="st6" points="-126.8,-30.2 -126.8,-9.9 -145.4,-9.9 -145.4,-30.2 	"/>
	<line class="st6" x1="-136.1" y1="-30.2" x2="-136.1" y2="36.4"/>
	<line class="st6" x1="-31.8" y1="-30.2" x2="-31.8" y2="39"/>
	<path class="st6" d="M-20.5,10.4h-11.3v-43.4l0,0c7.2,7,11.3,16.5,11.3,26.5V10.4z"/>
</g>
<g>
	<line class="st6" x1="-114.8" y1="81.8" x2="-114.8" y2="186.6"/>
	<path class="st6" d="M-114.8,92.6c-28.9,0-52.3,23.4-52.3,52.3c0-4.5,7.8-8.1,17.4-8.1c9.6,0,17.4,3.6,17.4,8.1
		c0-0.5,0.1-1,0.3-1.4C-131.7,115.2-124.1,92.6-114.8,92.6z"/>
	<path class="st6" d="M-114.8,92.6c9.3,0,16.9,22.7,17.2,50.9c0.2,0.5,0.3,0.9,0.3,1.4c0-4.5,7.8-8.1,17.4-8.1s17.4,3.6,17.4,8.1
		C-62.5,116-85.9,92.6-114.8,92.6z"/>
	<path class="st7" d="M-114.8,92.6c-9.3,0-16.9,22.7-17.2,50.9c1.5-3.8,8.6-6.6,17.2-6.6s15.7,2.9,17.2,6.6
		C-97.9,115.2-105.5,92.6-114.8,92.6z"/>
	<polyline class="st6" points="-158.1,206.3 -153.6,194.3 -78,194.3 -73.5,206.3 	"/>
	<path class="st6" d="M-73.7,194.3h-86.2c-1.8,0-3.6-0.8-4.9-2.1l-21-22.9c-2.5-2.7-2.3-6.9,0.4-9.3c2.7-2.5,6.9-2.3,9.3,0.4
		l19,20.7h83.3c3.6,0,6.6,3,6.6,6.6C-67.1,191.3-70,194.3-73.7,194.3z"/>
</g>
</svg>
