<?xml version="1.0" encoding="utf-8"?>
<!-- Generator: Adobe Illustrator 25.2.0, SVG Export Plug-In . SVG Version: 6.00 Build 0)  -->
<svg version="1.1" id="Layer_1" xmlns="http://www.w3.org/2000/svg" xmlns:xlink="http://www.w3.org/1999/xlink" x="0px" y="0px"
	 viewBox="0 0 32 32" style="enable-background:new 0 0 32 32;" xml:space="preserve">
<style type="text/css">
	.st0{fill:#EF2C2C;}
	.st1{fill:none;}
</style>
<g id="Layer_2_1_">
	<path class="st0" d="M13,23C7.5,23,3,18.5,3,13S7.5,3,13,3s10,4.5,10,10S18.5,23,13,23z M13,5c-4.4,0-8,3.6-8,8s3.6,8,8,8
		s8-3.6,8-8S17.4,5,13,5z"/>
	<path class="st0" d="M28,29c-0.3,0-0.5-0.1-0.7-0.3l-8-8c-0.4-0.4-0.4-1,0-1.4s1-0.4,1.4,0l8,8c0.4,0.4,0.4,1,0,1.4c0,0,0,0,0,0
		C28.5,28.9,28.3,29,28,29z"/>
</g>
<g id="frame">
	<rect class="st1" width="32" height="32"/>
</g>
</svg>
