<svg width="32" height="32" xmlns="http://www.w3.org/2000/svg">

 <title/>
 <g>
  <title>background</title>
  <rect fill="none" id="canvas_background" height="402" width="582" y="-1" x="-1"/>
 </g>
 <g>
  <title>Layer 1</title>
  <path fill="#ef2c2c" id="svg_1" d="m24,29l-16,0a3,3 0 0 1 -3,-3l0,-10a1,1 0 0 1 2,0l0,10a1,1 0 0 0 1,1l16,0a1,1 0 0 0 1,-1l0,-10a1,1 0 0 1 2,0l0,10a3,3 0 0 1 -3,3z"/>
  <path fill="#ef2c2c" id="svg_2" d="m15,29l-5,0a1,1 0 0 1 -1,-1l0,-6a3,3 0 0 1 3,-3l1,0a3,3 0 0 1 3,3l0,6a1,1 0 0 1 -1,1zm-4,-2l3,0l0,-5a1,1 0 0 0 -1,-1l-1,0a1,1 0 0 0 -1,1l0,5z"/>
  <path fill="#ef2c2c" id="svg_3" d="m25,17a4,4 0 0 1 -4,-4a1,1 0 0 1 2,0a2,2 0 0 0 4,0l0,-0.76l-2.62,-5.24l-16.76,0l-2.62,5.24l0,0.76a2,2 0 0 0 4,0a1,1 0 0 1 2,0a4,4 0 0 1 -8,0l0,-1a1,1 0 0 1 0.11,-0.45l3,-6a1,1 0 0 1 0.89,-0.55l18,0a1,1 0 0 1 0.89,0.55l3,6a1,1 0 0 1 0.11,0.45l0,1a4,4 0 0 1 -4,4z"/>
  <path fill="#ef2c2c" id="svg_4" d="m13,17a4,4 0 0 1 -4,-4a1,1 0 0 1 2,0a2,2 0 0 0 4,0a1,1 0 0 1 2,0a4,4 0 0 1 -4,4z"/>
  <path fill="#ef2c2c" id="svg_5" d="m19,17a4,4 0 0 1 -4,-4a1,1 0 0 1 2,0a2,2 0 0 0 4,0a1,1 0 0 1 2,0a4,4 0 0 1 -4,4z"/>
  <path fill="#ef2c2c" id="svg_6" d="m22,22l-3,0a1,1 0 0 1 0,-2l3,0a1,1 0 0 1 0,2z"/>
 </g>
</svg>